# xmcd CD database file
# 
# Track frame offsets:
# 	150
# 	12644
# 	24598
# 	36889
# 	46946
# 	59058
# 	68660
# 	81284
# 	91290
# 	104129
# 	116038
# 	128418
# 	139998
# 	152311
# 	164589
# 	176427
# 	189025
# 	202597
# 	213583
# 	224919
# 
# Disc length: 3159 seconds
# 
# Submitted via: Nero 6, 6, 1, 15
# 
# Revision: 0
# Processed by: cddbd v1.5.2PL0 Copyright (c) Steve Scherf et al.
#
DISCID=1f0c5514
DTITLE=Various Artist - Back Street Affair: Country Cheatin' Songs
DYEAR=1900
DGENRE=
TTITLE0=Webb Pierce - Back Street Affair[Webb Pierce]
TTITLE1=Kitty Wells - Paying For That Back Street Affair[Kitty Wells]
TTITLE2=Hank Williams - Your Cheatin' Heart[Hank Williams]
TTITLE3=Jimmy Wakely and Margaret Whiting - Slipping Around[Jimmy Wakely and Ma
TTITLE3=rgaret Whiting]
TTITLE4=Floyd Tillman - I'll Never Slip Around Again[Floyd Tillman]
TTITLE5=Red Foley - Cheatin' On Your Baby[Red Foley]
TTITLE6=Jimmy Wakely - One Has My Name (The Other Has My Heart)[Jimmy Wakely]
TTITLE7=Hank Snow and Anita Carter - Down The Trail Of Broken Hearts[Hank Snow 
TTITLE7=and Anita Carter]
TTITLE8=Tex Ritter - I'm Wasting My Tears On You[Tex Ritter]
TTITLE9=Tennessee Ernie Ford and Kay Starr - I'll Never Be Free[Tennessee Ernie
TTITLE9=Ford and Kay Starr]
TTITLE10=Hank Thompson - The Wild Side Of Life[Hank Thompson]
TTITLE11=Kitty Wells - It Wasn't God Who Made Honky Tonk Angels[Kitty Wells]
TTITLE12=Tex Ritter - You Two-Timed Me One Time Too Often[Tex Ritter]
TTITLE13=Faron Young - I Heard The Juke Box Playing[Faron Young]
TTITLE14=Ernest Tubb - I Don't Blame You[Ernest Tubb]
TTITLE15=Jenny Lou Carson and Her Tumbleweek Troubadours - I'll Never Trust You A
TTITLE15=gain[Jenny Lou Carson and Her Tumbleweek Troubadours]
TTITLE16=Ray Rice - I Made A Mistake And I'm Sorry[Ray Rice]
TTITLE17=Ferlin Husky and Jean Shepherd - Forgive Me, John[Ferlin Husky and Jean Sh
TTITLE17=epherd]
TTITLE18=Carl Smith - I Won't Be At Home[Carl Smith]
TTITLE19=Hank Thompson - I Find You Cheatin' On Me[Hank Thompson]
EXTD=
EXTT0=
EXTT1=
EXTT2=
EXTT3=
EXTT4=
EXTT5=
EXTT6=
EXTT7=
EXTT8=
EXTT9=
EXTT10=
EXTT11=
EXTT12=
EXTT13=
EXTT14=
EXTT15=
EXTT16=
EXTT17=
EXTT18=
EXTT19=
PLAYORDER=
